<svg version="1.2" xmlns="http://www.w3.org/2000/svg" viewBox="0 0 3600 2000" width="3600" height="2000">
	<title>6819-ai</title>
	<style>
		.s0 { fill: #93beff } 
		.s1 { fill: #9deeff } 
		.s2 { fill: #f7c29e } 
		.s3 { opacity: .2;mix-blend-mode: multiply;fill: #f7c29e } 
		.s4 { fill: #5cb30b } 
		.s5 { fill: #7fbf43 } 
		.s6 { fill: #ad8dce } 
		.s7 { fill: #9369bf } 
		.s8 { fill: #292929 } 
		.s9 { fill: #f19c61 } 
		.s10 { fill: #ffffff } 
		.s11 { opacity: .3;mix-blend-mode: multiply;fill: #3e82d7 } 
		.s12 { fill: #4385d8 } 
		.s13 { opacity: .3;fill: #3e82d7 } 
		.s14 { fill: #3e82d7 } 
		.s15 { fill: #8abbfa } 
		.s16 { fill: #f3aa78 } 
		.s17 { fill: #141414 } 
		.s18 { fill: #000000 } 
		.s19 { fill: #f19a5e } 
		.s20 { fill: #050505 } 
	</style>
	<g id="Layer 1">
		<g id="&lt;Group&gt;">
			<g id="&lt;Group&gt;">
				<g id="&lt;Group&gt;">
				</g>
				<g id="&lt;Group&gt;">
					<g id="&lt;Group&gt;">
					</g>
					<g id="&lt;Group&gt;">
					</g>
					<g id="&lt;Group&gt;">
					</g>
					<g id="&lt;Group&gt;">
					</g>
					<g id="&lt;Group&gt;">
						<g id="&lt;Group&gt;">
						</g>
					</g>
				</g>
				<g id="&lt;Group&gt;">
					<g id="&lt;Group&gt;">
						<g id="&lt;Group&gt;">
						</g>
					</g>
					<g id="&lt;Group&gt;">
					</g>
					<g id="&lt;Group&gt;">
						<g id="&lt;Group&gt;">
						</g>
					</g>
				</g>
				<g id="&lt;Group&gt;">
					<path id="&lt;Path&gt;" class="s0" d="m3600 1470.6c-260.4 1-720.9 306.2-720.9 529.4h720.9z"/>
					<path id="&lt;Path&gt;" class="s1" d="m0 976.6c95.4 88.1 183.3 96.4 238.3 96.4 284 0 473-393 876-393 353 0 446 261.5 471.5 305 25.5 43.5 124.5 318.4 192 378.2 67.5 59.8 306.8 219.5 412.5 434.8 27.1 55.2 51 155 51 202h-2241.3z"/>
				</g>
			</g>
			<g id="&lt;Group&gt;">
				<path id="&lt;Path&gt;" class="s2" d="m423.2 2000h407.2l33.7-90.9c12-32.3 36.5-58.2 67.8-72.3 29.5-13.4 69.2-37.6 107.7-80.8 74.8-84 114.6-174.2 114.6-174.2l-252.4-1.2c0 0 22.7-141.2-102.7-328.6-13.4-20.1-19.5-44.2-17.4-68.2l11.8-136.8c0 0 85.3-95.2 33-213.4 0 0-50-69.2-69.9-43.9 0 0-151 359.7-164.7 413.2-13.8 53.5-32.1 87.1-13.8 255.2 4.9 44.5 6.6 81.6 6.5 112.1-0.1 58.6-13.2 116.4-38.2 169.3z"/>
				<path id="&lt;Path&gt;" class="s3" d="m803 1766.7c-37.8-42-90.3-35.4-145.6-54.5-55.2-19.1-72.9-157.1-72.9-157.1v-0.1q0.2 7.9 0.1 15.2c-0.1 58.6-13.2 116.4-38.2 169.3l-123.2 260.5h407.2l33.7-90.9c12-32.3 36.5-58.2 67.8-72.3 25.1-11.4 57.6-30.6 90.4-62.7-112.1 47.1-181.5 34.5-219.3-7.4z"/>
				<g id="&lt;Group&gt;">
					<path id="&lt;Path&gt;" class="s4" d="m622.9 370.6c93.6 147.7 324.3 279.3 324.3 279.3 0 0-183.4-14.9-274.4-133.4l33-27.4c0 0-26.2 2.6-48.2 5.1-20.2-33.6-33.3-74.3-34.7-123.6z"/>
					<path id="&lt;Path&gt;" class="s5" d="m868.5 431.6c-14.2 6.5-35.3 16.3-35.3 16.3l20.3-29.1c-23.6-18.4-49.6-30.6-75.4-38.7-10.4 15.2-22.7 32.2-22.7 32.2l-2.4-38.8c-69.1-14.8-130.1-2.9-130.1-2.9 93.6 147.7 324.3 279.3 324.3 279.3-1-108.5-34-176.3-78.7-218.3z"/>
				</g>
				<g id="&lt;Group&gt;">
					<path id="&lt;Path&gt;" class="s6" d="m588.5 579c27.6-16.2 55.5-24.9 82.6-28.5 8.2 9.3 18.3 20.3 18.3 20.3l0.5-22c104.4-5 192.3 60.8 192.3 60.8-59.7 36.3-111.1 46.5-153.4 43.4-2.7-7.6-6.5-19.1-6.5-19.1l-7 17.7c-20.4-2.9-38.4-8.8-54-16 3.8-9.2 7.7-19.7 7.7-19.7l-22.2 12.2c-38.2-21.6-58.3-49.1-58.3-49.1z"/>
					<path id="&lt;Path&gt;" class="s7" d="m728.8 653c-2.7-7.6-6.5-19.1-6.5-19.1l-7 17.7c-20.4-2.9-38.4-8.8-54-16 3.8-9.2 7.7-19.7 7.7-19.7l-22.2 12.2c-38.2-21.6-58.3-49.1-58.3-49.1 121.4-13.9 293.7 30.6 293.7 30.6-59.7 36.3-111.1 46.5-153.4 43.4z"/>
				</g>
				<g id="&lt;Group&gt;">
					<path id="&lt;Path&gt;" class="s7" d="m1616 563.8l-8.8 66.3 47.1-34.4 144.2-73.7-111.6 10.3c0 0-56.8 13.8-59.9 16.5-3 2.8-11 15-11 15z"/>
					<path id="&lt;Path&gt;" class="s6" d="m1566.6 523.7l231.9-1.7-182.5 41.8z"/>
					<path id="&lt;Path&gt;" class="s6" d="m1690.5 630.5l-60.8-48.8 168.8-59.7z"/>
				</g>
				<g id="&lt;Group&gt;">
					<g id="&lt;Group&gt;">
						<path id="&lt;Path&gt;" class="s8" d="m1592 598.3c8.9-3.3 15.5-4 15.5-4l-0.4-4.1c-0.3 0-7.1 0.7-16.5 4.3z"/>
					</g>
					<g id="&lt;Group&gt;">
						<path id="&lt;Compound Path&gt;" class="s8" d="m1445.9 967.8c9.6-4.9 18.6-10.1 26.8-15.6l2.3 3.5c-8.3 5.5-17.5 10.9-27.2 15.8zm51.3-34.6c7.7-7.1 14.8-14.8 20.8-22.8l3.3 2.5c-6.2 8.2-13.4 16.1-21.4 23.4zm36.9-49.2c2-4.3 3.9-8.7 5.5-13.2 1.9-5.1 3.6-10.4 5-15.8l4 1c-1.4 5.6-3.1 11-5.1 16.2-1.7 4.7-3.6 9.2-5.7 13.6zm16.8-90.6l4.1-0.1c0.3 11.3-0.1 21.6-1 31.5l-4.1-0.3c0.9-9.8 1.2-20 1-31.1zm-5.9-62.1l4.1-0.6c1.7 12.2 2.9 22.1 3.9 31.2l-4.2 0.4c-0.9-9.1-2.1-18.9-3.8-31zm-4.7-31.2c-1.6-11.1-2.1-21.7-1.5-31.4l4.1 0.3c-0.6 9.4-0.1 19.7 1.5 30.5l0.1 0.3-4.1 0.5zm5.2-62.5c4.1-10.2 10.2-19.1 17.9-26.4l2.9 3c-7.3 6.9-13.1 15.3-17 24.9z"/>
					</g>
					<g id="&lt;Group&gt;">
						<path id="&lt;Path&gt;" class="s8" d="m1403.3 990.2c5.3-1.9 10.6-3.8 15.6-5.8l-1.5-3.9c-5 2-10.2 3.9-15.5 5.7z"/>
					</g>
				</g>
				<g id="&lt;Group&gt;">
					<path id="&lt;Path&gt;" class="s9" d="m1381.8 549.9c0 0 86.3-57.7 106-19.7 19.7 38.1-112.1 172.6-112.1 172.6z"/>
					<path id="&lt;Path&gt;" class="s9" d="m1381.8 801.4c0 0 86.3-57.7 106-19.7 19.7 38.1-112.1 172.6-112.1 172.6z"/>
					<path id="&lt;Path&gt;" class="s9" d="m1381.8 972.8c0 0 86.3-57.7 106-19.7 19.7 38-112.1 172.6-112.1 172.6z"/>
				</g>
				<path id="&lt;Path&gt;" class="s8" d="m1322.3 485.2h-473.5c-35.3 0-63.9 28.6-63.9 63.9v787.9 179.8c0 35.5 28.9 63.8 63.9 63.8h473.5c35.2 0 63.8-28.6 63.8-63.8v-788-179.7c0-35.6-28.9-63.9-63.8-63.9z"/>
				<path id="&lt;Path&gt;" class="s3" d="m828.1 1298.9c0 0-85.7 209.6-77.4 249.3 8.3 39.6 60.3 92.6 187.8 74.9 127.5-17.6 215.7-41.3 215.7-41.3 0 0 5.3-282.9 0-297.2-5.4-14.4-234.6-116.2-243.7-116.2-9 0-82.4 130.5-82.4 130.5z"/>
				<path id="&lt;Path&gt;" class="s10" d="m1355.2 1493.6h-539.3v-921.3h539.3z"/>
				<path id="&lt;Path&gt;" class="s11" d="m1224.1 1109.6h-468.4c-16.1 0-29.3 13.1-29.3 29.3v193.3c0 16.2 13.2 29.3 29.3 29.3h368.8c14.9 20.8 41.9 58.1 44.3 58.1 2.3 0-2-35.2-5.1-58.1h60.4c16.2 0 29.3-13.1 29.3-29.3v-193.3c0-16.2-13.1-29.3-29.3-29.3z"/>
				<path id="&lt;Path&gt;" class="s11" d="m1391.7 671.7h-498.6c-16.1 0-29.2 13.2-29.2 29.3v207.8c0 16.1 13.1 29.3 29.2 29.3h51.8c-3 22.8-6.9 55.6-4.8 55.6 2.3 0 27.5-34.5 42.7-55.6h408.9c16.2 0 29.3-13.2 29.3-29.3v-207.8c0-16.1-13.1-29.3-29.3-29.3z"/>
				<path id="&lt;Path&gt;" class="s10" d="m1196.7 543.3h-221.5c-2.6 0-4.6-2.1-4.6-4.6v-2.3c0-2.6 2-4.6 4.6-4.6h221.5c2.6 0 4.6 2 4.6 4.6v2.3c0 2.5-2 4.6-4.6 4.6z"/>
				<path id="&lt;Path&gt;" class="s2" d="m774.2 1129.5c0 0 3.2 12.1 10.6 18.1l8.7-100.6c0 0 62.7-70 47.6-164.5-5.2-32.4-21.3-62.2-45.9-83.8-14-12.3-29.5-20.6-38.6-9 0 0-71 169.2-120.1 292.7z"/>
				<path id="&lt;Path&gt;" class="s12" d="m1204.7 1059.5h-468.3c-16.2 0-29.3 13.1-29.3 29.3v193.3c0 16.1 13.1 29.3 29.3 29.3h368.7c15 20.8 42 58.1 44.4 58.1 2.2 0-2.1-35.3-5.1-58.1h60.3c16.2 0 29.3-13.2 29.3-29.3v-193.3c0-16.2-13.1-29.3-29.3-29.3z"/>
				<g id="&lt;Group&gt;">
					<path id="&lt;Path&gt;" class="s13" d="m1111.7 1538c0 14.6-11.9 26.5-26.5 26.5-14.6 0-26.5-11.9-26.5-26.5 0-14.7 11.9-26.5 26.5-26.5 14.6 0 26.5 11.8 26.5 26.5z"/>
					<g id="&lt;Group&gt;">
						<path id="&lt;Compound Path&gt;" fill-rule="evenodd" class="s14" d="m1093.1 1549h-15.8c-1.7 0-3.1-1.4-3.1-3.1v-15.8c0-1.8 1.4-3.2 3.1-3.2h15.8c1.7 0 3.1 1.4 3.1 3.2v15.8c0 1.7-1.4 3.1-3.1 3.1zm-15.8-21.2c-1.3 0-2.3 1-2.3 2.3v15.8c0 1.2 1 2.3 2.3 2.3h15.8c1.3 0 2.3-1.1 2.3-2.3v-15.8c0-1.3-1-2.3-2.3-2.3z"/>
					</g>
				</g>
				<path id="&lt;Path&gt;" class="s15" d="m1355.2 1493.6h-539.3v-54.5h539.3z"/>
				<path id="&lt;Path&gt;" class="s15" d="m1355.2 621.1h-539.3v-48.8h539.3z"/>
				<path id="&lt;Path&gt;" class="s9" d="m769.4 889.1c19.6-9.1 29.9-60.1 33.6-83.1-15.8-15.8-35.5-30.1-46.4-16.3 0 0-15.6 37.3-37.3 89.6 14.9 8.2 35.4 16.5 50.1 9.8z"/>
				<path id="&lt;Path&gt;" class="s16" d="m1263.9 1179c0 0-72.8 6.2-75.3 25.5-2.6 19.4 3 53.5 71.8 60.1h71.2c0 0-21.3-59.1-20.3-61.1 1-2-47.4-24.5-47.4-24.5z"/>
				<path id="&lt;Path&gt;" class="s2" d="m1147.1 1467.8c-9.9 5.2-13.3 17.7-7.7 27.3 33.5 57.8 166.8 287.6 178.8 306.3 13.7 21.4 47.3 71.8 158.9 97.8 111.5 25.9 157.4 100.8 157.4 100.8h343.8c0 0-81-128.4-148.2-461.5 0 0-52-276.5-149.8-267.4 0 0-59.6-62.6-117.6-50.4 0 0-110.1-65.7-172.7-65.7l-150.5-177.8c-14.9-17.6-41.1-21.1-59.4-7.1-5.9 4.5-10.4 10.5-11.7 18.4-4.5 29 33.7 102.3 94.8 191 61.1 88.6 212.4 369.7 146.7 493.5 0 0-67.3-50.4-125.3-131.4-48.7-67.8-105.9-90.6-137.5-73.8z"/>
				<path id="&lt;Path&gt;" class="s9" d="m1390.6 1155.1c19.9 17.1 38.6 35.6 56.3 55.1 23.9 26 54 64.5 71.7 94.2 22.3 36.8 37.1 69 44 109.5l-0.4 0.1c-8-38-29-79-47.2-107.3-13.7-22.1-39-57.3-70.8-94.1-16-18.5-36.3-40.3-54-57.2z"/>
				<path id="&lt;Path&gt;" class="s9" d="m1561.7 1220.2c16.2 8.4 30.7 20 43.5 33.1 13 13 23.7 27.8 33 44 9.1 16 16 33.2 20.7 50.9 3.9 16.7 6.5 27.9 6.9 54.2l-0.5 0.1c-1.5-18-4.8-35.9-9.9-53.2-5.1-16.8-12.4-34.8-21.2-49.8-8.8-15.8-19.5-30.4-31.6-43.8-11.5-12.6-26.6-26.2-41.1-35.1z"/>
				<path id="&lt;Path&gt;" class="s9" d="m1679.1 1269.9c14.3 10.8 28.9 30.1 35.9 43.1 8.9 15.2 15.9 32.9 20.6 52.3 3.4 12.4 4.2 24.5 4.8 37.1l-0.5 0.1c-2.1-12.2-3.4-21.4-7.8-36.2-6.7-22.4-11.9-34-20.9-51.3-5.3-10.6-19.2-31.8-32.4-44.8z"/>
				<path id="&lt;Path&gt;" class="s9" d="m1216.5 1538.9c3-15.5-15-40-31.4-58.5-10.2-11.6-26.3-15.9-40.5-11-7.9 5.8-10.3 16.9-5.2 25.7 9 15.6 25.2 43.5 44.3 76.5 14.3-7.3 29.9-18.4 32.8-32.7z"/>
				<path id="&lt;Path&gt;" class="s9" d="m1230.9 1047c8.7-1.8 48.1-14.9 45.7-22.1l-38.9-45.9c-7.7-9.2-18.5-14.5-29.6-15.5q-0.1 0-0.2-0.1c-0.3 0-1 0-2 0-5.2 0-18.1 1.5-20.9 15.6-2.8 13.9 20.3 47.8 30.5 61.9 3.5 4.9 9.5 7.2 15.4 6.1z"/>
				<path id="&lt;Path&gt;" class="s8" d="m540.5 1759.7c43.1 26.5 181.8 105.7 325.2 122.5 8.4 1 14.3 8.7 11.8 15.4l-25 67.1c-1.7 4.4-6.7 7-12.3 6.3-42.2-5.1-216.6-31.3-339.3-126.3-4.2-3.2-6-8.1-4.4-12.3l25.5-68.5c2.5-6.4 11.5-8.5 18.5-4.2z"/>
				<path id="&lt;Path&gt;" class="s17" d="m527.9 1823.9l-0.5-0.2c-2.5-0.9-3.8-3.7-2.8-6.2l7.7-20.7c0.9-2.5 3.7-3.8 6.3-2.8l0.4 0.1c2.5 1 3.8 3.8 2.9 6.3l-7.7 20.7c-1 2.5-3.8 3.7-6.3 2.8z"/>
				<path id="&lt;Path&gt;" class="s17" d="m553.7 1839.8l-0.5-0.2c-2.5-0.9-3.8-3.7-2.8-6.2l7.7-20.7c0.9-2.5 3.7-3.8 6.3-2.8l0.4 0.1c2.5 1 3.8 3.8 2.9 6.3l-7.7 20.6c-1 2.6-3.8 3.8-6.3 2.9z"/>
				<path id="&lt;Path&gt;" class="s17" d="m579.6 1855.6l-0.5-0.2c-2.5-0.9-3.8-3.7-2.9-6.2l7.7-20.7c1-2.5 3.8-3.8 6.3-2.9l0.5 0.2c2.5 1 3.8 3.8 2.8 6.3l-7.7 20.6c-0.9 2.6-3.7 3.8-6.2 2.9z"/>
				<path id="&lt;Path&gt;" class="s17" d="m606.1 1868.4l-0.4-0.1c-2.5-1-3.8-3.8-2.9-6.3l7.7-20.7c1-2.5 3.8-3.7 6.3-2.8l0.5 0.2c2.5 0.9 3.8 3.7 2.8 6.2l-7.7 20.7c-0.9 2.5-3.7 3.8-6.3 2.8z"/>
				<path id="&lt;Path&gt;" class="s17" d="m632.3 1883.4l-0.5-0.2c-2.5-0.9-3.8-3.7-2.8-6.3l7.7-20.6c0.9-2.5 3.7-3.8 6.2-2.9l0.5 0.2c2.5 0.9 3.8 3.7 2.9 6.3l-7.7 20.6c-1 2.5-3.8 3.8-6.3 2.9z"/>
				<path id="&lt;Path&gt;" class="s17" d="m659.6 1895.2l-0.5-0.2c-2.5-0.9-3.7-3.7-2.8-6.2l7.7-20.7c0.9-2.5 3.7-3.8 6.3-2.8l0.4 0.1c2.6 1 3.8 3.8 2.9 6.3l-7.7 20.7c-1 2.5-3.8 3.7-6.3 2.8z"/>
				<path id="&lt;Path&gt;" class="s17" d="m687.5 1905.6l-0.5-0.2c-2.5-0.9-3.8-3.7-2.9-6.2l7.8-20.7c0.9-2.5 3.7-3.8 6.2-2.8l0.5 0.1c2.5 1 3.8 3.8 2.8 6.3l-7.7 20.7c-0.9 2.5-3.7 3.7-6.2 2.8z"/>
				<path id="&lt;Path&gt;" class="s17" d="m715.9 1914.6l-0.5-0.2c-2.5-0.9-3.8-3.8-2.9-6.3l7.8-20.6c0.9-2.5 3.7-3.8 6.2-2.9l0.5 0.2c2.5 0.9 3.8 3.7 2.8 6.2l-7.7 20.7c-0.9 2.5-3.7 3.8-6.2 2.9z"/>
				<path id="&lt;Path&gt;" class="s17" d="m745.4 1920.4l-0.5-0.1c-2.5-1-3.8-3.8-2.8-6.3l7.7-20.7c0.9-2.5 3.7-3.8 6.3-2.8l0.4 0.2c2.5 0.9 3.8 3.7 2.9 6.2l-7.7 20.7c-1 2.5-3.8 3.8-6.3 2.8z"/>
				<path id="&lt;Path&gt;" class="s17" d="m774.2 1928.4l-0.5-0.2c-2.5-0.9-3.8-3.7-2.9-6.2l7.8-20.7c0.9-2.5 3.7-3.8 6.2-2.9l0.5 0.2c2.5 1 3.8 3.8 2.8 6.3l-7.7 20.6c-0.9 2.5-3.7 3.8-6.2 2.9z"/>
				<path id="&lt;Path&gt;" class="s17" d="m804 1933.4l-0.4-0.2c-2.5-0.9-3.8-3.7-2.9-6.2l7.7-20.7c1-2.5 3.8-3.8 6.3-2.9l0.5 0.2c2.5 1 3.8 3.8 2.8 6.3l-7.7 20.6c-0.9 2.6-3.7 3.8-6.3 2.9z"/>
				<path id="&lt;Path&gt;" class="s17" d="m834 1938.3l-0.5-0.2c-2.5-0.9-3.8-3.7-2.9-6.2l7.7-20.7c1-2.5 3.8-3.8 6.3-2.9l0.5 0.2c2.5 1 3.8 3.8 2.8 6.3l-7.7 20.6c-0.9 2.6-3.7 3.8-6.2 2.9z"/>
				<path id="&lt;Path&gt;" class="s5" d="m625.6 1915.1l0.2-0.3q-0.7-0.1-1.4-0.3l-33.9-12.7c-3.4-1.2-5-5.2-3.7-8.8l30.6-82c1.4-3.6 5.2-5.5 8.6-4.3l33.9 12.7c2 0.7 3.4 2.4 3.9 4.4q4 1.8 8 3.5c1-6.9-2.6-13.6-8.9-15.9l-33.9-12.7c-7.5-2.8-16 1.5-19 9.5l-30.6 82c-3 8 0.6 16.8 8.1 19.6l33.9 12.7c5.1 1.9 10.7 0.5 14.7-3.2q-5.2-2-10.5-4.2z"/>
				<path id="&lt;Path&gt;" class="s10" d="m618.2 1850.1l-14.8-5.5c-2.6-1-5.6 0.5-6.7 3.4-1.1 2.8 0.2 5.9 2.9 6.9l14.7 5.5z"/>
				<path id="&lt;Path&gt;" class="s3" d="m1634.5 2000h343.8c0 0-53.1-84.2-109-293-24.5 153.8-159.9 144.9-213.6 153.4-61.8 9.9-301.9-40.2-335.5-56 14.9 22.9 50.4 70 156.9 94.8 111.5 25.9 157.4 100.8 157.4 100.8z"/>
				<path id="&lt;Path&gt;" class="s3" d="m1281.3 1207.3c67.5 108.4 188.4 357.2 128.6 465.7l39.7 39.2c0 0 100.3-111.2-59.4-356.3-37.1-57.1-74-106.4-108.9-148.6z"/>
				<path id="&lt;Path&gt;" class="s10" d="m881.1 1185.4c0 40.6-32.9 73.5-73.5 73.5-40.5 0-73.4-32.9-73.4-73.5 0-40.5 32.9-73.4 73.4-73.4 40.6 0 73.5 32.9 73.5 73.4z"/>
				<path id="&lt;Path&gt;" class="s18" d="m769.4 1187.4c0 0-7.3-29.9 10.1-41.1 17.3-11.2 35.8-13.8 48.5-7.3 17.5 8.9 24.7 33.1 19.1 46.4l-46.5-11.7z"/>
				<g id="&lt;Group&gt;">
					<path id="&lt;Path&gt;" class="s2" d="m819.2 1244h-21.5v-21.6h21.5z"/>
					<path id="&lt;Path&gt;" class="s19" d="m819.2 1235.3v-12.9h-21.5v11c4.6 2.5 11.5 3.9 21.5 1.9z"/>
					<path id="&lt;Path&gt;" class="s2" d="m853.2 1183.9c-2.2-1.1-4.8-0.9-7.2 0.3 0.8-21.3-16.5-39.1-38.4-38.4-21.8-0.7-39.2 17.1-38.4 38.4-2.3-1.2-4.9-1.4-7.2-0.3-4.3 2.1-5.6 8.2-3 13.6 2.7 5.4 8.3 8 12.6 5.9q0.9-0.4 1.7-1.1c2.4 17.6 17.1 30.7 34.3 30.5 17.2 0.2 31.9-12.9 34.4-30.5q0.7 0.7 1.6 1.1c4.3 2.1 10-0.5 12.6-5.9 2.7-5.4 1.4-11.5-3-13.6z"/>
					<path id="&lt;Path&gt;" class="s10" d="m821.7 1209c-0.9 4.2-5.8 7.6-11.8 7.8-5.9 0.2-11-2.9-12.2-7.1z"/>
				</g>
				<path id="&lt;Path&gt;" class="s18" d="m769.2 1184.2c0 0 28.3-8.6 40.6-22.8 0 0-3.5 17.2-6.1 19.9 0.8 0.5 28.2-12.8 31.9-25 3.7-12.3-28-16.7-28-16.7 0 0-10.8 4.6-11.4 4.9-0.5 0.3-10.7 1.4-11.9 4-1.5 3.4-8.7 3.7-8.7 3.7l-4.5 9.5-3.2 9.9z"/>
				<path id="&lt;Path&gt;" class="s18" d="m746.1 1145.3c6.3 2.5 13.4 3.7 20.9 1.4 16.5-5.1 23-3.1 25.2-1.9 1.3 0.8 2.9 1.1 4.3 0.6 1.6-0.6 3.1-2 2.7-5.7 0 0 0.6-15.7-12.8-24.6-16.7 5-30.9 15.9-40.3 30.2z"/>
				<g id="&lt;Group&gt;">
					<g id="&lt;Group&gt;">
						<path id="&lt;Path&gt;" class="s5" d="m781.5 1144.3c-0.4-0.7-0.3-1.6 0.4-2 2.7-1.8 9.8-5.9 18.3-6.3 0.8-0.1 1.5 0.6 1.5 1.4 0 0.7-0.6 1.3-1.4 1.3-7.7 0.4-14.4 4.3-16.9 5.9-0.6 0.4-1.4 0.3-1.9-0.3z"/>
					</g>
				</g>
				<g id="&lt;Group&gt;">
					<path id="&lt;Path&gt;" class="s4" d="m1415.6 616.5h-498.6c-16.2 0-29.3 13.1-29.3 29.3v207.7c0 16.2 13.1 29.3 29.3 29.3h51.8c-3.1 22.9-7 55.7-4.8 55.7 2.3 0 27.4-34.5 42.6-55.7h409c16.1 0 29.3-13.1 29.3-29.3v-207.7c0-16.2-13.2-29.3-29.3-29.3z"/>
					<path id="&lt;Path&gt;" class="s10" d="m1057.7 750.4c0 40.6-32.9 73.4-73.5 73.4-40.5 0-73.4-32.8-73.4-73.4 0-40.5 32.9-73.4 73.4-73.4 40.6 0 73.5 32.9 73.5 73.4z"/>
					<g id="&lt;Group&gt;">
						<path id="&lt;Path&gt;" class="s2" d="m995.8 808.9h-21.5v-21.5h21.5z"/>
						<path id="&lt;Path&gt;" class="s19" d="m995.8 800.3v-12.9h-21.5v11c4.6 2.5 11.5 3.9 21.5 1.9z"/>
						<path id="&lt;Path&gt;" class="s2" d="m1029.8 748.9c-2.2-1.1-4.8-0.9-7.2 0.3 0.8-21.3-16.5-39.1-38.4-38.4-21.8-0.7-39.2 17.1-38.4 38.4-2.3-1.2-4.9-1.4-7.2-0.3-4.3 2.1-5.7 8.2-3 13.6 2.7 5.4 8.3 8 12.6 5.9q0.9-0.5 1.7-1.1c2.4 17.5 17.1 30.7 34.3 30.5 17.2 0.2 31.9-13 34.4-30.5q0.7 0.6 1.6 1.1c4.3 2.1 10-0.5 12.6-5.9 2.7-5.4 1.4-11.5-3-13.6z"/>
						<path id="&lt;Path&gt;" class="s20" d="m958 702.4c0 0 10.8-9.2 35.4-7.7 24.6 1.5 29.3 14.3 30.7 32.7l-1.5 21.8c0 0-6.4-6.6-14.7-24.8 0 0-13.8 15.5-19.8 13.6-6-1.8 2.3-12.9 2.3-12.9 0 0-28 24.1-44.6 24.1 0 0-8.7-28.3 3.6-38.7 0 0-9.3 0.5-9.8-1.3-0.5-1.8 4.4-4.6 13.3-3.5 0 0-6.3-12.4-2.8-13.7 3.6-1.3 7.9 10.4 7.9 10.4z"/>
						<path id="&lt;Path&gt;" class="s10" d="m998.3 774c-0.9 4.2-5.8 7.6-11.8 7.8-5.9 0.1-11-2.9-12.2-7.1z"/>
					</g>
					<path id="&lt;Path&gt;" class="s10" d="m1369.1 689.1h-280.1c-3.4 0-6.1-2.7-6.1-6v-0.7c0-3.3 2.7-6 6.1-6h280.1c3.4 0 6.1 2.7 6.1 6v0.7c0 3.3-2.7 6-6.1 6z"/>
					<path id="&lt;Path&gt;" class="s10" d="m1145.9 722.8h-56.9c-3.4 0-6.1-2.7-6.1-6v-0.7c0-3.3 2.7-6 6.1-6h56.9c3.3 0 6 2.7 6 6v0.7c0 3.3-2.7 6-6 6z"/>
					<path id="&lt;Path&gt;" class="s10" d="m1369.1 722.8h-185c-3.4 0-6.1-2.7-6.1-6v-0.7c0-3.3 2.7-6 6.1-6h185c3.4 0 6.1 2.7 6.1 6v0.7c0 3.3-2.7 6-6.1 6z"/>
					<path id="&lt;Path&gt;" class="s10" d="m1227.8 756.5h-138.8c-3.4 0-6.1-2.7-6.1-6.1v-0.6c0-3.4 2.7-6.1 6.1-6.1h138.8c3.4 0 6.1 2.7 6.1 6.1v0.6c0 3.4-2.7 6.1-6.1 6.1z"/>
					<path id="&lt;Path&gt;" class="s10" d="m1369.1 756.5h-107c-3.4 0-6.1-2.7-6.1-6.1v-0.6c0-3.4 2.7-6.1 6.1-6.1h107c3.4 0 6.1 2.7 6.1 6.1v0.6c0 3.4-2.7 6.1-6.1 6.1z"/>
					<path id="&lt;Path&gt;" class="s10" d="m1369.1 790.2h-280.1c-3.4 0-6.1-2.8-6.1-6.1v-0.6c0-3.4 2.7-6.1 6.1-6.1h280.1c3.4 0 6.1 2.7 6.1 6.1v0.6c0 3.3-2.7 6.1-6.1 6.1z"/>
				</g>
				<path id="&lt;Path&gt;" class="s10" d="m987.7 1134.9h-86.3c-3.3 0-6-2.7-6-6v-0.7c0-3.3 2.7-6 6-6h86.3c3.3 0 6.1 2.7 6.1 6v0.7c0 3.3-2.8 6-6.1 6z"/>
				<path id="&lt;Path&gt;" class="s10" d="m955.8 1168.6h-54.4c-3.3 0-6-2.7-6-6.1v-0.6c0-3.4 2.7-6.1 6-6.1h54.4c3.3 0 6 2.7 6 6.1v0.6c0 3.4-2.7 6.1-6 6.1z"/>
				<path id="&lt;Path&gt;" class="s10" d="m1049 1168.6h-69.6c-3.4 0-6.1-2.7-6.1-6.1v-0.6c0-3.4 2.7-6.1 6.1-6.1h69.6c3.3 0 6.1 2.7 6.1 6.1v0.6c0 3.4-2.8 6.1-6.1 6.1z"/>
				<path id="&lt;Path&gt;" class="s10" d="m1170.7 1168.6h-98.1c-3.4 0-6.1-2.7-6.1-6.1v-0.6c0-3.4 2.7-6.1 6.1-6.1h98.1c3.3 0 6.1 2.7 6.1 6.1v0.6c0 3.4-2.8 6.1-6.1 6.1z"/>
				<path id="&lt;Path&gt;" class="s10" d="m1170.7 1134.9h-154.6c-3.3 0-6-2.7-6-6v-0.7c0-3.3 2.7-6 6-6h154.6c3.3 0 6.1 2.7 6.1 6v0.7c0 3.3-2.8 6-6.1 6z"/>
				<path id="&lt;Path&gt;" class="s10" d="m1170.7 1234.6h-269.3c-3.3 0-6-2.7-6-6.1v-0.6c0-3.4 2.7-6.1 6-6.1h269.3c3.3 0 6.1 2.7 6.1 6.1v0.6c0 3.4-2.8 6.1-6.1 6.1z"/>
				<path id="&lt;Path&gt;" class="s10" d="m1034.7 1202.3h-133.3c-3.3 0-6-2.8-6-6.1v-0.6c0-3.4 2.7-6.1 6-6.1h133.3c3.3 0 6 2.7 6 6.1v0.6c0 3.3-2.7 6.1-6 6.1z"/>
				<path id="&lt;Path&gt;" class="s10" d="m1170.7 1202.3h-102.6c-3.4 0-6.1-2.8-6.1-6.1v-0.6c0-3.4 2.7-6.1 6.1-6.1h102.6c3.3 0 6.1 2.7 6.1 6.1v0.6c0 3.3-2.8 6.1-6.1 6.1z"/>
				<g id="&lt;Group&gt;">
					<g id="&lt;Group&gt;">
						<path id="&lt;Path&gt;" class="s8" d="m465 1148.2c-7.2-6.2-13.1-9.1-13.1-9.1l1.8-3.8c0.3 0.2 6.4 3.2 14 9.8z"/>
					</g>
					<g id="&lt;Group&gt;">
						<path id="&lt;Compound Path&gt;" class="s8" d="m471.6 1548.2c-7.5-8-14.3-16.1-20.2-24.2l3.4-2.5c5.8 8 12.5 16 19.8 23.9zm-36.8-51.1c-5-9.6-9.1-19.4-12-29.3l3.9-1.2c2.9 9.6 6.9 19.2 11.7 28.6zm-18-60.4c-0.5-4.8-0.7-9.7-0.7-14.7 0-5.5 0.3-11.2 0.9-16.9l4.1 0.4c-0.6 5.6-0.9 11.1-0.9 16.5 0 4.8 0.3 9.7 0.7 14.4zm9.9-61.7l-4-1.1c2.6-9.7 5.8-19.5 9.9-29.9l3.9 1.5c-4.1 10.3-7.3 20-9.8 29.5zm22.4-58l-3.7-1.8c4-8.3 8.6-17.1 14.4-27.9l3.7 2c-5.8 10.7-10.4 19.5-14.4 27.7zm29.4-55.2l-3.7-2 0.1-0.2c5.3-9.6 9.3-19.1 12-28.1l4 1.1c-2.8 9.3-6.9 19.1-12.3 29zm12.6-60.5c-0.3-10.4-2.8-20.3-7.3-29.3l3.7-1.9c4.8 9.6 7.4 20 7.8 31z"/>
					</g>
					<g id="&lt;Group&gt;">
						<path id="&lt;Path&gt;" class="s8" d="m506.8 1581.1c-4.3-3.6-8.6-7.2-12.6-10.8l2.7-3.1c4 3.5 8.2 7.1 12.6 10.7z"/>
					</g>
				</g>
				<g id="&lt;Group&gt;">
					<path id="&lt;Path&gt;" class="s4" d="m437.7 1078.2l-5.5 66.6-38.7-43.6-125.3-102.6 106.9 33.7c0 0 52.6 25.5 55 28.9 2.4 3.4 7.6 17 7.6 17z"/>
					<path id="&lt;Path&gt;" class="s5" d="m494.5 1049.5l-226.3-50.9 169.5 79.6z"/>
					<path id="&lt;Path&gt;" class="s5" d="m350.7 1127.5l69.7-34.8-152.2-94.1z"/>
				</g>
			</g>
		</g>
	</g>
</svg>