<svg id="visual" viewBox="0 0 960 540" width="960" height="540" xmlns="http://www.w3.org/2000/svg" xmlns:xlink="http://www.w3.org/1999/xlink" version="1.1"><rect x="0" y="0" width="960" height="540" fill="#f0f0f0"></rect><defs><linearGradient id="grad1_0" x1="43.8%" y1="0%" x2="100%" y2="100%"><stop offset="14.444444444444446%" stop-color="#f0f0f0" stop-opacity="1"></stop><stop offset="85.55555555555554%" stop-color="#f0f0f0" stop-opacity="1"></stop></linearGradient></defs><defs><linearGradient id="grad2_0" x1="0%" y1="0%" x2="56.3%" y2="100%"><stop offset="14.444444444444446%" stop-color="#f0f0f0" stop-opacity="1"></stop><stop offset="85.55555555555554%" stop-color="#f0f0f0" stop-opacity="1"></stop></linearGradient></defs><g transform="translate(960, 0)"><path d="M0 378C-24.4 353 -48.8 328 -72.1 315.9C-95.4 303.7 -117.5 304.5 -147.1 305.4C-176.7 306.4 -213.8 307.5 -230.1 288.5C-246.3 269.4 -241.6 230.2 -261.9 208.9C-282.2 187.6 -327.5 184.2 -340.6 164C-353.6 143.8 -334.5 106.7 -335.4 76.5C-336.2 46.4 -357.1 23.2 -378 0L0 0Z" fill="#d3d3ca"></path></g><g transform="translate(0, 540)"><path d="M0 -378C26.4 -361.3 52.8 -344.6 75.4 -330.5C98.1 -316.4 117 -304.8 145.8 -302.7C174.5 -300.7 213.1 -308.1 232.6 -291.6C252 -275.1 252.3 -234.7 258.8 -206.4C265.2 -178.1 277.9 -161.9 300 -144.5C322.2 -127.1 353.9 -108.4 368.5 -84.1C383.1 -59.8 380.6 -29.9 378 0L0 0Z" fill="#d3d3ca"></path></g></svg>